<?xml version="1.0" encoding="iso-8859-1"?>
<!-- Generator: Adobe Illustrator 19.0.0, SVG Export Plug-In . SVG Version: 6.00 Build 0)  -->
<svg version="1.1" id="Capa_1" xmlns="http://www.w3.org/2000/svg" xmlns:xlink="http://www.w3.org/1999/xlink" x="0px" y="0px"
	 viewBox="0 0 512 512" style="enable-background:new 0 0 512 512;" xml:space="preserve">
<g>
	<path style="fill:#35495E;" d="M512,35.31v467.862c-0.014,4.869-3.958,8.813-8.828,8.828H8.828
		c-4.869-0.014-8.813-3.958-8.828-8.828V35.31H512z"/>
	<path style="fill:#D1D4D1;" d="M512,8.828v44.138H0V8.828C0.014,3.958,3.958,0.014,8.828,0h494.345
		C508.042,0.014,511.986,3.958,512,8.828z"/>
	<g>
		<path style="fill:#ECF0F1;" d="M88.276,35.31H35.31c-4.875,0-8.828-3.952-8.828-8.828s3.952-8.828,8.828-8.828h52.966
			c4.875,0,8.828,3.952,8.828,8.828S93.151,35.31,88.276,35.31z"/>
		<path style="fill:#ECF0F1;" d="M141.241,35.31h-17.655c-4.875,0-8.828-3.952-8.828-8.828s3.952-8.828,8.828-8.828h17.655
			c4.875,0,8.828,3.952,8.828,8.828S146.117,35.31,141.241,35.31z"/>
		<path style="fill:#ECF0F1;" d="M194.207,35.31h-17.655c-4.875,0-8.828-3.952-8.828-8.828s3.952-8.828,8.828-8.828h17.655
			c4.875,0,8.828,3.952,8.828,8.828S199.082,35.31,194.207,35.31z"/>
		<path style="fill:#ECF0F1;" d="M247.172,35.31h-17.655c-4.875,0-8.828-3.952-8.828-8.828s3.952-8.828,8.828-8.828h17.655
			c4.875,0,8.828,3.952,8.828,8.828S252.048,35.31,247.172,35.31z"/>
		<path style="fill:#ECF0F1;" d="M300.138,35.31h-17.655c-4.875,0-8.828-3.952-8.828-8.828s3.952-8.828,8.828-8.828h17.655
			c4.875,0,8.828,3.952,8.828,8.828S305.013,35.31,300.138,35.31z"/>
		<path style="fill:#ECF0F1;" d="M485.517,35.31h-8.828c-4.875,0-8.828-3.952-8.828-8.828s3.952-8.828,8.828-8.828h8.828
			c4.875,0,8.828,3.952,8.828,8.828S490.393,35.31,485.517,35.31z"/>
		<path style="fill:#ECF0F1;" d="M238.345,238.345c-2.341,0.001-4.587-0.929-6.243-2.585c-1.656-1.656-2.585-3.901-2.585-6.243
			c1.273-17.405-5.09-34.502-17.431-46.84c-20.207-18.168-51.931-15.043-52.233-15.004c-4.837,0.517-9.18-2.976-9.712-7.811
			s2.948-9.189,7.781-9.736c1.595-0.181,39.672-4.112,65.854,19.324c16.238,15.618,24.793,37.582,23.396,60.069
			c0.001,2.341-0.929,4.587-2.585,6.243C242.932,237.416,240.686,238.345,238.345,238.345z"/>
		<path style="fill:#ECF0F1;" d="M114.741,379.577c-4.527-0.005-8.315-3.435-8.767-7.94c-0.172-1.767-4.026-43.591,21.974-72.323
			c15.406-17.026,37.699-25.659,66.259-25.659c4.875,0,8.828,3.952,8.828,8.828s-3.952,8.828-8.828,8.828
			c-19.723-1.39-39.083,5.818-53.095,19.767c-20.75,22.832-17.603,58.465-17.569,58.819c0.469,4.848-3.076,9.159-7.922,9.638
			C115.328,379.564,115.035,379.578,114.741,379.577z"/>
		<path style="fill:#ECF0F1;" d="M273.655,229.517c-2.341,0.001-4.587-0.929-6.243-2.585c-1.656-1.656-2.585-3.901-2.585-6.243
			c0-55.862,51.966-70.621,79.448-70.621c4.875-0.005,8.832,3.943,8.836,8.819c0.005,4.875-3.943,8.832-8.819,8.836
			c-2.526,0.009-61.811,0.853-61.811,52.966c0.001,2.341-0.929,4.587-2.585,6.243S275.997,229.518,273.655,229.517z"/>
		<path style="fill:#ECF0F1;" d="M406.069,370.759c-2.341,0.001-4.587-0.929-6.243-2.585c-1.656-1.656-2.585-3.901-2.585-6.243
			c0-60.828-67.75-61.78-70.638-61.793c-4.875-0.005-8.824-3.961-8.819-8.836s3.961-8.824,8.836-8.819
			c30.535,0,88.276,16.603,88.276,79.448c0.001,2.341-0.929,4.587-2.585,6.243C410.656,369.829,408.41,370.759,406.069,370.759z"/>
	</g>
	<path style="fill:#E4C05C;" d="M35.31,141.241h114.759c4.875,0,8.828,3.952,8.828,8.828v70.621c0,4.875-3.952,8.828-8.828,8.828
		H44.138c-4.875,0-8.828-3.952-8.828-8.828V141.241z"/>
	<path style="fill:#B19046;" d="M44.138,105.931h44.138c4.875,0,8.828,3.952,8.828,8.828v26.483H35.31v-26.483
		C35.31,109.883,39.263,105.931,44.138,105.931z"/>
	<path style="fill:#67B9CC;" d="M44.138,370.759h114.759c4.875,0,8.828,3.952,8.828,8.828v88.276c0,4.875-3.952,8.828-8.828,8.828
		H44.138c-4.875,0-8.828-3.952-8.828-8.828v-88.276C35.31,374.711,39.263,370.759,44.138,370.759z"/>
	<path style="fill:#E4C05C;" d="M70.621,406.069c-4.163-0.041-7.72-3.011-8.502-7.1c-0.782-4.089,1.427-8.162,5.281-9.736
		c3.854-1.574,8.283-0.213,10.588,3.255c2.304,3.467,1.844,8.078-1.1,11.022C75.195,405.12,72.958,406.034,70.621,406.069z"/>
	<path style="fill:#527F72;" d="M167.724,459.034v8.828c-0.014,4.869-3.958,8.813-8.828,8.828H44.138
		c-4.869-0.014-8.813-3.958-8.828-8.828v-8.828l35.31-35.31l22.069,22.069l30.897-30.897L167.724,459.034z"/>
	<path style="fill:#D1D4D1;" d="M353.103,105.931h114.759c4.875,0,8.828,3.952,8.828,8.828v88.276c0,4.875-3.952,8.828-8.828,8.828
		H353.103c-4.875,0-8.828-3.952-8.828-8.828v-88.276C344.276,109.883,348.228,105.931,353.103,105.931z"/>
	<g>
		<path style="fill:#8697CB;" d="M388.414,185.379c-2.342,0.003-4.588-0.928-6.241-2.586l-17.655-17.655
			c-1.656-1.655-2.586-3.9-2.586-6.241c0-2.341,0.93-4.586,2.586-6.241L382.173,135c3.453-3.41,9.012-3.392,12.443,0.039
			c3.432,3.432,3.449,8.99,0.039,12.443l-11.414,11.414l11.414,11.414c2.524,2.525,3.279,6.321,1.913,9.619
			C395.202,183.228,391.984,185.379,388.414,185.379z"/>
		<path style="fill:#8697CB;" d="M432.552,185.379c-3.57-0.001-6.788-2.152-8.154-5.45c-1.366-3.298-0.611-7.094,1.913-9.619
			l11.414-11.414l-11.414-11.414c-3.41-3.453-3.392-9.012,0.039-12.443c3.432-3.432,8.99-3.449,12.443-0.039l17.655,17.655
			c1.656,1.655,2.586,3.9,2.586,6.241c0,2.341-0.93,4.586-2.586,6.241l-17.655,17.655
			C437.139,184.451,434.893,185.382,432.552,185.379z"/>
	</g>
	<g>
		<path style="fill:#67B9CC;" d="M260.414,211.862c-41.44,0-75.034,33.594-75.034,75.034s33.594,75.034,75.034,75.034
			s75.034-33.594,75.034-75.034C335.4,245.476,301.834,211.91,260.414,211.862z M260.414,344.276
			c-5.941,0-13.634-9.787-18.192-26.483h36.384C274.047,334.489,266.355,344.276,260.414,344.276z M239.01,300.138
			c-0.886-8.805-0.886-17.677,0-26.483h42.808c0.886,8.805,0.886,17.677,0,26.483H239.01z M203.034,286.897
			c0.016-4.461,0.554-8.905,1.603-13.241h16.658c-0.373,4.288-0.606,8.69-0.606,13.241c0,4.552,0.233,8.954,0.606,13.241h-16.658
			C203.589,295.802,203.051,291.358,203.034,286.897z M260.414,229.517c5.941,0,13.634,9.787,18.192,26.483h-36.384
			C246.78,239.304,254.473,229.517,260.414,229.517z M299.532,273.655h16.658c2.138,8.698,2.138,17.785,0,26.483h-16.658
			c0.373-4.288,0.606-8.69,0.606-13.241S299.905,277.943,299.532,273.655z M308.688,256h-11.85
			c-1.309-5.953-3.164-11.773-5.542-17.385C298.273,243.094,304.205,249.024,308.688,256z M229.532,238.615
			c-2.378,5.612-4.233,11.432-5.542,17.385h-11.85C216.622,249.024,222.554,243.094,229.532,238.615z M212.14,317.793h11.85
			c1.309,5.953,3.164,11.773,5.542,17.385C222.554,330.699,216.622,324.769,212.14,317.793z M291.295,335.178
			c2.378-5.612,4.233-11.432,5.542-17.385h11.85C304.205,324.769,298.273,330.699,291.295,335.178z"/>
		<ellipse style="fill:#67B9CC;" cx="410.483" cy="379.586" rx="57.379" ry="17.655"/>
	</g>
	<path style="fill:#4482C3;" d="M467.862,414.897v35.31c0,9.71-25.687,17.655-57.379,17.655s-57.379-7.945-57.379-17.655v-35.31
		c0,9.71,25.687,17.655,57.379,17.655S467.862,424.607,467.862,414.897z"/>
	<path style="fill:#2FA8CC;" d="M467.862,379.586v35.31c0,9.71-25.687,17.655-57.379,17.655s-57.379-7.945-57.379-17.655v-35.31
		c0,9.71,25.687,17.655,57.379,17.655S467.862,389.297,467.862,379.586z"/>
</g>
<g>
</g>
<g>
</g>
<g>
</g>
<g>
</g>
<g>
</g>
<g>
</g>
<g>
</g>
<g>
</g>
<g>
</g>
<g>
</g>
<g>
</g>
<g>
</g>
<g>
</g>
<g>
</g>
<g>
</g>
</svg>
