<svg height="511pt" viewBox="0 0 511.97909 511" width="511pt" xmlns="http://www.w3.org/2000/svg"><path d="m505.027344 321.609375-24.984375 24.984375c-11.875 10.246094-29.789063 9.027344-40.164063-2.738281l-24.539062-24.539063-210.894532-210.890625-24.890624-72.035156-8.121094-23.390625 23.390625 8.121094 72.035156 24.890625 210.890625 210.894531 24.539062 24.539062c11.765626 10.375 12.984376 28.289063 2.738282 40.164063zm0 0" fill="#e64c3c"/><path d="m506.792969 482.359375-476.691407-476.6875c-5.035156-5.054687-12.621093-6.570313-19.214843-3.84375-6.589844 2.726563-10.89062525 9.15625-10.886719 16.289063v476.691406c.0273438 9.738281 7.917969 17.625 17.65625 17.65625h476.6875c7.132812 0 13.566406-4.296875 16.292969-10.890625 2.726562-6.589844 1.207031-14.175781-3.84375-19.214844zm-427.34375-49.34375v-273.65625l273.652343 273.65625zm0 0" fill="#f0c419"/><g fill="#393f4a"><path d="m114.757812 477.152344v35.3125h-17.65625v-35.3125c0-4.875 3.953126-8.828125 8.828126-8.828125s8.828124 3.953125 8.828124 8.828125zm0 0"/><path d="m167.722656 485.980469v26.484375h-17.652344v-26.484375c0-4.875 3.949219-8.828125 8.828126-8.828125 4.875 0 8.824218 3.953125 8.824218 8.828125zm0 0"/><path d="m220.691406 477.152344v35.3125h-17.65625v-35.3125c0-4.875 3.953125-8.828125 8.828125-8.828125s8.828125 3.953125 8.828125 8.828125zm0 0"/><path d="m273.65625 485.980469v26.484375h-17.65625v-26.484375c0-4.875 3.953125-8.828125 8.828125-8.828125s8.828125 3.953125 8.828125 8.828125zm0 0"/><path d="m326.621094 477.152344v35.3125h-17.65625v-35.3125c0-4.875 3.953125-8.828125 8.828125-8.828125s8.828125 3.953125 8.828125 8.828125zm0 0"/><path d="m379.585938 485.980469v26.484375h-17.65625v-26.484375c0-4.875 3.953124-8.828125 8.828124-8.828125s8.828126 3.953125 8.828126 8.828125zm0 0"/><path d="m432.550781 477.152344v35.3125h-17.652343v-35.3125c0-4.875 3.949218-8.828125 8.824218-8.828125s8.828125 3.953125 8.828125 8.828125zm0 0"/><path d="m44.136719 88.738281c-.011719 4.871094-3.957031 8.8125-8.828125 8.828125h-35.308594v-17.65625h35.308594c4.871094.015625 8.816406 3.960938 8.828125 8.828125zm0 0"/><path d="m35.308594 141.703125c-.011719 4.871094-3.957032 8.816406-8.824219 8.828125h-26.484375v-17.65625h26.484375c4.867187.015625 8.8125 3.960938 8.824219 8.828125zm0 0"/><path d="m44.136719 194.671875c-.011719 4.867187-3.957031 8.8125-8.828125 8.824219h-35.308594v-17.652344h35.308594c4.871094.011719 8.816406 3.957031 8.828125 8.828125zm0 0"/><path d="m0 256.464844h26.484375c4.875 0 8.824219-3.953125 8.824219-8.828125s-3.949219-8.828125-8.824219-8.828125h-26.484375zm0 0"/><path d="m44.136719 300.601562c-.011719 4.867188-3.957031 8.8125-8.828125 8.828126h-35.308594v-17.65625h35.308594c4.871094.015624 8.816406 3.957031 8.828125 8.828124zm0 0"/><path d="m35.308594 353.566406c-.011719 4.871094-3.957032 8.8125-8.824219 8.828125h-26.484375v-17.65625h26.484375c4.867187.015625 8.8125 3.957031 8.824219 8.828125zm0 0"/><path d="m44.136719 406.53125c-.011719 4.871094-3.957031 8.8125-8.828125 8.828125h-35.308594v-17.65625h35.308594c4.871094.015625 8.816406 3.960937 8.828125 8.828125zm0 0"/></g><path d="m505.027344 321.609375-24.984375 24.984375c-11.875 10.246094-29.789063 9.027344-40.164063-2.738281l-24.539062-24.539063 62.410156-62.410156 24.539062 24.539062c11.765626 10.375 12.984376 28.289063 2.738282 40.164063zm0 0" fill="#fb7b76"/><path d="m390.355469 294.332031 62.410156-62.410156 24.984375 24.984375-62.414062 62.410156zm0 0" fill="#bdc3c7"/><path d="m302.519531 144.089844c-3.480469 3.410156-9.050781 3.410156-12.535156 0l-60.554687-60.558594v-.089844l12.445312-12.445312h.089844l60.554687 60.558594c3.445313 3.46875 3.445313 9.0625 0 12.535156zm0 0" fill="#c03a2b"/><path d="m427.875 256.90625-12.535156 12.535156-99.929688-99.929687c-2.253906-2.238281-3.140625-5.507813-2.324218-8.574219.820312-3.070312 3.214843-5.464844 6.285156-6.285156 3.066406-.816406 6.335937.070312 8.574218 2.324218zm0 0" fill="#c03a2b"/><path d="m61.792969 468.324219v44.140625h-17.65625v-44.140625h-44.136719v-17.652344h44.136719c9.738281.027344 17.628906 7.914063 17.65625 17.652344zm0 0" fill="#e57e25"/><path d="m266.859375 46.011719-62.414063 62.414062-24.890624-72.035156-8.121094-23.390625 23.390625 8.121094zm0 0" fill="#fdd7ad"/><path d="m193.941406 35.507812c-2.074218 2.035157-4.863281 3.175782-7.769531 3.179688-2.398437-.007812-4.730469-.8125-6.617187-2.296875l-8.121094-23.390625 23.390625 8.121094c3.363281 4.335937 2.984375 10.492187-.882813 14.386718zm0 0" fill="#2c2f38"/></svg>